<svg width="266" height="253" viewBox="0 0 266 253" fill="none" xmlns="http://www.w3.org/2000/svg">
<path d="M266 126.44L236.498 92.8352L240.609 48.3516L196.961 38.4396L174.109 0L133 17.6484L91.8909 0L69.0391 38.4396L25.3909 48.2308L29.5018 92.7143L0 126.44L29.5018 160.044L25.3909 204.648L69.0391 214.56L91.8909 253L133 235.231L174.109 252.879L196.961 214.44L240.609 204.527L236.498 160.044L266 126.44ZM108.818 186.879L60.4545 138.527L77.5027 121.484L108.818 152.67L188.497 73.011L205.545 90.1758L108.818 186.879Z" fill="url(#paint0_linear_9_934)"/>
<defs>
<linearGradient id="paint0_linear_9_934" x1="-22.7259" y1="200.106" x2="265.924" y2="108.551" gradientUnits="userSpaceOnUse">
<stop stop-color="#4113A9"/>
<stop offset="1" stop-color="#8467C5"/>
</linearGradient>
</defs>
</svg>
